<?xml version="1.0" encoding="utf-8"?>
<svg viewBox="0 0 100 100" xmlns="http://www.w3.org/2000/svg">
  <defs>
    <linearGradient gradientUnits="userSpaceOnUse" x1="291.614" y1="34.374" x2="291.614" y2="897.042" id="gradient-0">
      <stop offset="0" style="stop-color: rgba(115, 115, 115, 1)"/>
      <stop offset="1" style="stop-color: rgba(64, 64, 64, 1)"/>
    </linearGradient>
    <linearGradient gradientUnits="userSpaceOnUse" x1="423.893" y1="-88.452" x2="423.893" y2="1063.009" id="gradient-1">
      <stop offset="0" style="stop-color: rgb(67, 210, 67);"/>
      <stop offset="1" style="stop-color: rgb(4, 127, 4);"/>
    </linearGradient>
  </defs>
  <g transform="matrix(1.461590051651001, 0, 0, 1.461590051651001, -17.18761444091797, -24.677297592163082)" style="">
    <desc>Exported from Simplector Pro</desc>
    <g id="31">
      <path id="24" transform="matrix(0.054646555,0.0,0.0,0.054646555,27.481585,23.371912)" fill-opacity="1.0" stroke-width="2.9750001px" stroke-linecap="butt" stroke-linejoin="miter" stroke-miterlimit="1.0" stroke="rgb(0,0,0)" stroke-opacity="0.0" d=" M -6.3327475 140.47115 L -6.332756 179.638 L 149.05582 179.63596 L 149.05582 140.47168 L -6.3327475 140.47115 Z M 369.36633 558.3062 L 473.96216 558.3068 L 473.962 662.90326 L 369.36627 662.9037 L 369.36633 558.3062 Z M 235.25 558.3062 L 287.54642 558.3064 L 339.84445 558.3067 Q 339.8444 610.60504 339.8444 662.9032 Q 287.54636 662.9033 235.24847 662.90393 Q 235.24847 610.60504 235.24844 558.3062 Z M 369.36627 690.7134 L 473.962 690.71387 L 473.96204 795.31024 L 369.3664 795.31085 L 369.36627 690.7134 Z M 287.5464 690.7135 L 339.8444 690.7138 Q 339.8444 743.0121 339.84445 795.3103 Q 287.5464 795.3106 235.24854 795.31116 Q 235.24847 743.01227 235.2485 690.71356 L 235.25003 690.71356 L 287.5464 690.7135 Z M 345.42426 34.373528 L 127.202484 252.5964 L 127.20589 439.40952 L 116.57173 439.40967 Q 116.57173 482.24405 116.57173 525.07837 Q 116.57173 482.24405 116.56848 439.40967 L 116.57173 439.40967 Q 116.57173 311.4338 116.57173 183.45792 L 76.693726 183.45723 L 36.815666 183.45663 Q 36.815643 263.22476 36.815628 342.99286 L 36.81314 342.99286 L -109.80411 489.60422 L -11.740791 489.606 L -11.7408285 848.59216 L -11.740711 848.59216 Q 55.441883 880.62134 135.71844 893.467 L 135.7198 893.467 Q 169.31311 897.04236 201.41989 897.04236 L 201.4203 897.04236 Q 371.43613 897.04236 502.06293 795.9007 L 502.06342 795.9007 Q 655.9841 675.72406 688.4115 475.0134 L 688.4184 475.0134 L 693.02423 406.5476 L 693.0312 406.5476 Q 692.6635 393.5038 691.7787 380.7365 L 691.7856 380.7365 L 345.42426 34.373528 Z " style="fill: url(#gradient-0);"/>
      <path id="26" transform="matrix(0.054646555,0.0,0.0,0.054646555,27.481585,23.371912)" fill-opacity="1.0" stroke-width="2.9750001px" stroke-linecap="butt" stroke-linejoin="miter" stroke-miterlimit="1.0" stroke="rgb(0,0,0)" stroke-opacity="0.0" d=" M 402.00214 -88.45185 Q 501.56866 -49.26642 580.3236 29.488716 Q 731.11304 180.2778 736.84344 407.36047 L 731.9653 479.87433 Q 697.2829 699.01654 529.0029 830.4045 Q 386.4939 940.81744 201.41989 940.8173 Q 166.43944 940.8173 129.93834 936.8729 Q 8.389129 917.63586 -86.16274 857.29816 L -86.16674 857.29816 Q 53.20708 1023.14764 278.13745 1058.7463 Q 317.5797 1063.0085 355.37888 1063.0085 Q 555.3678 1063.0088 709.3614 943.6979 Q 891.2026 801.7216 928.68036 564.9193 L 933.95184 486.56195 Q 933.7226 406.60254 913.3245 333.0511 L 888.5727 261.7899 Q 859.1225 192.47446 813.6318 133.69527 Q 671.6554 -48.14618 434.8529 -85.62348 Q 418.28705 -87.41364 402.01105 -88.45185 Z " style="fill: url(#gradient-1);"/>
    </g>
  </g>
</svg>